<svg xmlns="http://www.w3.org/2000/svg" width="12.74" height="12.74" viewBox="0 0 12.74 12.74">
  <path id="bxl-linkedin-square" d="M15.032,3H3.708A.708.708,0,0,0,3,3.708V15.032a.708.708,0,0,0,.708.708H15.032a.708.708,0,0,0,.708-.708V3.708A.708.708,0,0,0,15.032,3ZM6.779,13.855H4.888V7.775H6.779Zm-.946-6.91a1.1,1.1,0,1,1,1.1-1.1A1.1,1.1,0,0,1,5.833,6.945Zm8.023,6.91H11.967V10.9c0-.7-.013-1.612-.982-1.612s-1.133.769-1.133,1.562v3.007H7.964V7.776H9.776v.831H9.8a1.984,1.984,0,0,1,1.786-.982c1.914,0,2.267,1.258,2.267,2.9v3.334Z" transform="translate(-3 -3)" fill="#3c326e"/>
</svg>
