<svg id="bxl-instagram-alt" xmlns="http://www.w3.org/2000/svg" width="12.746" height="12.767" viewBox="0 0 12.746 12.767">
  <path id="Path_3" data-name="Path 3" d="M15.7,6.749a4.621,4.621,0,0,0-.3-1.568,3.263,3.263,0,0,0-1.864-1.864,4.676,4.676,0,0,0-1.547-.3c-.681-.03-.9-.039-2.625-.039s-1.95,0-2.626.039a4.675,4.675,0,0,0-1.546.3A3.261,3.261,0,0,0,3.333,5.181a4.639,4.639,0,0,0-.3,1.546c-.03.682-.04.9-.04,2.626s0,1.949.04,2.626a4.668,4.668,0,0,0,.3,1.548A3.263,3.263,0,0,0,5.2,15.39a4.66,4.66,0,0,0,1.546.319c.682.03.9.04,2.626.04s1.95,0,2.626-.04a4.664,4.664,0,0,0,1.547-.3,3.267,3.267,0,0,0,1.864-1.864A4.661,4.661,0,0,0,15.7,12c.03-.681.04-.9.04-2.626S15.741,7.427,15.7,6.749ZM9.365,12.622A3.272,3.272,0,1,1,12.637,9.35,3.271,3.271,0,0,1,9.365,12.622Zm3.4-5.9a.763.763,0,1,1,.762-.763A.762.762,0,0,1,12.767,6.719Z" transform="translate(-2.997 -2.981)" fill="#3c326e"/>
  <circle id="Ellipse_1" data-name="Ellipse 1" cx="2.256" cy="2.256" r="2.256" transform="translate(4.258 4.117)" fill="#3c326e"/>
</svg>
